<svg xmlns="http://www.w3.org/2000/svg" viewBox="0 0 32 32" width="32" height="32">
  <!-- Background circle -->
  <circle cx="16" cy="16" r="15" fill="#f97316" stroke="#ea580c" stroke-width="2"/>

  <!-- Bowl -->
  <ellipse cx="16" cy="20" rx="10" ry="6" fill="#fbbf24"/>
  <ellipse cx="16" cy="18" rx="10" ry="6" fill="#f59e0b"/>

  <!-- Noodles -->
  <path d="M8 18 Q12 14 16 18 Q20 14 24 18" stroke="#dc2626" stroke-width="1.5" fill="none"/>
  <path d="M9 19 Q13 15 17 19 Q21 15 23 19" stroke="#dc2626" stroke-width="1.5" fill="none"/>
  <path d="M10 20 Q14 16 18 20 Q22 16 22 20" stroke="#dc2626" stroke-width="1.5" fill="none"/>

  <!-- Chopsticks -->
  <line x1="6" y1="8" x2="12" y2="14" stroke="#8b4513" stroke-width="1.5" stroke-linecap="round"/>
  <line x1="7" y1="7" x2="13" y2="13" stroke="#8b4513" stroke-width="1.5" stroke-linecap="round"/>

  <!-- Steam -->
  <path d="M12 10 Q12 8 13 8 Q13 9 12 9" stroke="#e5e7eb" stroke-width="1" fill="none" opacity="0.7"/>
  <path d="M16 9 Q16 7 17 7 Q17 8 16 8" stroke="#e5e7eb" stroke-width="1" fill="none" opacity="0.7"/>
  <path d="M20 10 Q20 8 21 8 Q21 9 20 9" stroke="#e5e7eb" stroke-width="1" fill="none" opacity="0.7"/>
</svg>
